<svg width="138" height="39" viewBox="0 0 138 39" fill="none" xmlns="http://www.w3.org/2000/svg">
<path d="M12.8438 18.7031C13.1875 18.5156 13.4766 18.2969 13.7109 18.0469C13.9453 17.7969 14.2344 17.5781 14.5781 17.3906C14.7188 17.1875 14.9453 16.9609 15.2578 16.7109C15.3828 16.6016 15.5078 16.4922 15.6328 16.3828C15.7578 16.2734 15.875 16.1562 15.9844 16.0312C16.3281 15.8438 16.6328 15.6484 16.8984 15.4453C17.1641 15.2422 17.4062 14.9844 17.625 14.6719C17.8125 14.5156 18.0078 14.375 18.2109 14.25C18.2891 14.2031 18.3672 14.1562 18.4453 14.1094C18.5391 14.0469 18.625 13.9844 18.7031 13.9219C19.0156 13.6406 19.3203 13.3516 19.6172 13.0547C19.9141 12.7422 20.2109 12.4297 20.5078 12.1172C21.1172 11.4453 21.75 10.8438 22.4062 10.3125C22.4844 10.2188 22.5625 10.125 22.6406 10.0312C22.7344 9.9375 22.8203 9.85156 22.8984 9.77344L23.3906 9.28125C23.7188 9.01562 24.0938 8.67188 24.5156 8.25C24.6562 8.10938 24.7812 7.94531 24.8906 7.75781C25.0156 7.53906 25.1406 7.35938 25.2656 7.21875C25.5312 6.90625 25.7656 6.54688 25.9688 6.14062C26.2188 5.76562 26.4609 5.39062 26.6953 5.01562C26.9297 4.64062 27.125 4.25 27.2812 3.84375C27.3906 3.40625 27.4922 3.10938 27.5859 2.95312C27.6641 2.82812 27.7344 2.6875 27.7969 2.53125C27.8906 2.34375 27.9609 2.14844 28.0078 1.94531C28.0391 1.77344 28.125 1.59375 28.2656 1.40625C28.3906 1.28125 28.5625 1.19531 28.7812 1.14844C29 1.10156 29.1875 1.15625 29.3438 1.3125C29.8125 1.15625 30.1406 1.35938 30.3281 1.92188C30.3906 2.04688 30.4062 2.20312 30.375 2.39062C30.3438 2.60938 30.3281 2.79688 30.3281 2.95312C30.25 3.35938 30.2266 3.76562 30.2578 4.17188C30.2734 4.53125 30.2188 4.92188 30.0938 5.34375C30.0312 5.5625 29.9375 5.8125 29.8125 6.09375C29.7031 6.32812 29.6094 6.5 29.5312 6.60938C29.4531 6.70312 29.4062 6.80469 29.3906 6.91406C29.375 7.02344 29.3281 7.125 29.25 7.21875C29.1719 7.34375 29.0703 7.46094 28.9453 7.57031C28.7578 7.72656 28.625 7.85938 28.5469 7.96875C28.1094 8.40625 27.7031 8.85156 27.3281 9.30469C26.9531 9.75781 26.5938 10.2188 26.25 10.6875C25.9219 11.0781 25.7344 11.3203 25.6875 11.4141C25.5938 11.5703 25.5156 11.6875 25.4531 11.7656C25.3594 11.9219 25.2422 12.0625 25.1016 12.1875C24.9453 12.3281 24.8125 12.4688 24.7031 12.6094C24.625 12.6875 24.5781 12.7656 24.5625 12.8438C24.5469 12.9219 24.5 13 24.4219 13.0781C24.2344 13.2812 24.0391 13.4844 23.8359 13.6875C23.6484 13.8906 23.4531 14.0938 23.25 14.2969C22.8594 14.6875 22.4844 15.1094 22.125 15.5625L21.8438 16.0312C21.7969 16.1094 21.7422 16.1875 21.6797 16.2656C21.6328 16.3438 21.5781 16.4219 21.5156 16.5C21.4531 16.5469 21.3438 16.6172 21.1875 16.7109C21.0781 16.7734 20.9375 16.8906 20.7656 17.0625C20.7031 17.125 20.625 17.1797 20.5312 17.2266C20.4062 17.2891 20.3125 17.3438 20.25 17.3906L18.1406 18.6562C18 18.7656 17.8594 18.875 17.7188 18.9844C17.5781 19.0781 17.4297 19.1719 17.2734 19.2656C17.1172 19.3594 16.9688 19.4531 16.8281 19.5469C16.7031 19.6406 16.5781 19.7344 16.4531 19.8281C15.9531 20.2031 15.5859 20.5703 15.3516 20.9297C15.1016 21.3047 14.6562 21.5781 14.0156 21.75C13.9219 22.1875 13.9453 22.5625 14.0859 22.875C14.2109 23.1406 14.3125 23.4219 14.3906 23.7188C14.4531 23.8594 14.5078 24.0391 14.5547 24.2578C14.5859 24.3672 14.6094 24.4766 14.625 24.5859C14.6562 24.6797 14.6875 24.7812 14.7188 24.8906C14.7656 25.0312 14.8047 25.1719 14.8359 25.3125C14.8828 25.4531 14.9219 25.5859 14.9531 25.7109C15.0312 26.0234 15.125 26.3125 15.2344 26.5781C15.2969 26.6875 15.3438 26.8125 15.375 26.9531C15.4062 27.0938 15.4531 27.2188 15.5156 27.3281C15.5469 27.4531 15.5781 27.5781 15.6094 27.7031C15.6406 27.8125 15.6641 27.9219 15.6797 28.0312C15.7109 28.1406 15.7344 28.2578 15.75 28.3828C15.7812 28.4922 15.8125 28.6094 15.8438 28.7344C15.9688 29.25 16.1562 29.75 16.4062 30.2344C16.5 30.5781 16.6406 30.8828 16.8281 31.1484C17.0312 31.4297 17.1875 31.6875 17.2969 31.9219C17.4375 32 17.5703 32.125 17.6953 32.2969C17.8203 32.4531 17.9375 32.5938 18.0469 32.7188C18.3438 33 18.5703 33.2969 18.7266 33.6094C18.8828 33.9062 19.1094 34.1875 19.4062 34.4531C19.625 34.4844 19.8438 34.5078 20.0625 34.5234C20.2812 34.5391 20.5 34.5 20.7188 34.4062C20.875 34.3125 20.9922 34.2266 21.0703 34.1484C21.1484 34.0703 21.2656 33.9844 21.4219 33.8906C21.5625 33.75 21.6875 33.6484 21.7969 33.5859C21.9062 33.5234 22 33.4375 22.0781 33.3281C22.7344 32.9688 23.25 32.5781 23.625 32.1562C23.8281 31.9375 24.0312 31.7188 24.2344 31.5C24.4531 31.2656 24.6719 31.0312 24.8906 30.7969C25 30.7188 25.1016 30.6406 25.1953 30.5625C25.3047 30.4688 25.3984 30.3828 25.4766 30.3047C25.5547 30.2266 25.6406 30.1484 25.7344 30.0703C25.8281 29.9766 25.9219 29.8906 26.0156 29.8125C26.4531 29.7031 26.7812 29.5938 27 29.4844C27.2031 29.375 27.3906 29.3125 27.5625 29.2969C27.7812 29.2344 27.9922 29.1953 28.1953 29.1797C28.3984 29.1641 28.5781 29.2031 28.7344 29.2969C28.6719 29.3906 28.6562 29.5234 28.6875 29.6953C28.7188 29.8672 28.7031 30 28.6406 30.0938C28.5625 30.3438 28.4766 30.5312 28.3828 30.6562C28.3203 30.7344 28.2578 30.8203 28.1953 30.9141C28.1484 30.9922 28.0938 31.0781 28.0312 31.1719C27.75 31.4531 27.4844 31.6875 27.2344 31.875C26.9375 32.0938 26.6875 32.3281 26.4844 32.5781C26.2188 32.7656 25.9453 32.9844 25.6641 33.2344C25.5547 33.3438 25.4375 33.4531 25.3125 33.5625C25.1875 33.6719 25.0625 33.7812 24.9375 33.8906C24.7031 34.125 24.4453 34.3438 24.1641 34.5469C23.8828 34.75 23.625 34.9688 23.3906 35.2031C23.1562 35.4219 22.9219 35.6484 22.6875 35.8828C22.4531 36.1172 22.2266 36.3594 22.0078 36.6094C21.5391 37.125 21.0469 37.5625 20.5312 37.9219C20.1562 38.3281 19.7656 38.5312 19.3594 38.5312C19.1875 38.4531 19.0312 38.4062 18.8906 38.3906C18.75 38.375 18.5938 38.3281 18.4219 38.25C17.9688 37.9062 17.4844 37.6016 16.9688 37.3359C16.4688 37.0703 16.0781 36.6562 15.7969 36.0938C15.5469 35.9062 15.3359 35.6719 15.1641 35.3906C14.9922 35.1094 14.8281 34.7969 14.6719 34.4531L14.3672 34.1484C14.2734 34.0391 14.1875 33.9062 14.1094 33.75C13.9531 33.6562 13.8516 33.5703 13.8047 33.4922C13.7578 33.4141 13.6719 33.3125 13.5469 33.1875C13.2656 32.625 12.9922 31.9766 12.7266 31.2422C12.4609 30.5078 12.2344 29.875 12.0469 29.3438C12.0312 29.2969 12.0156 29.25 12 29.2031C11.9844 29.1562 11.9688 29.1094 11.9531 29.0625C11.9375 29.0156 11.9219 28.9609 11.9062 28.8984C11.8906 28.8359 11.875 28.7656 11.8594 28.6875C11.7969 28.5938 11.75 28.5078 11.7188 28.4297C11.6875 28.3516 11.6562 28.2656 11.625 28.1719C11.5312 27.9844 11.4609 27.7734 11.4141 27.5391C11.3984 27.4141 11.375 27.2969 11.3438 27.1875C11.3125 27.0625 11.2812 26.9375 11.25 26.8125C11.1875 26.5938 11.0938 26.3438 10.9688 26.0625C10.9062 25.9375 10.8438 25.8125 10.7812 25.6875C10.7344 25.5625 10.6875 25.4375 10.6406 25.3125C10.5469 25.0312 10.4531 24.75 10.3594 24.4688C10.2656 24.1875 10.1406 23.9219 9.98438 23.6719C9.54688 24.2344 9.28125 24.7188 9.1875 25.125C9.09375 25.5156 8.96875 25.875 8.8125 26.2031C8.57812 26.5938 8.45312 26.8359 8.4375 26.9297C8.42188 27.0547 8.375 27.2031 8.29688 27.375C8.14062 27.625 7.98438 27.8828 7.82812 28.1484C7.67188 28.4141 7.53125 28.7031 7.40625 29.0156C7.35938 29.125 7.30469 29.2734 7.24219 29.4609C7.17969 29.6484 7.125 29.7969 7.07812 29.9062C7.03125 30.0156 6.99219 30.1797 6.96094 30.3984C6.92969 30.6172 6.89062 30.7812 6.84375 30.8906C6.8125 30.9375 6.78125 30.9844 6.75 31.0312C6.71875 31.0781 6.6875 31.1172 6.65625 31.1484C6.625 31.1797 6.59375 31.2188 6.5625 31.2656C6.53125 31.3125 6.5 31.3594 6.46875 31.4062C6.3125 31.6562 6.17969 31.9297 6.07031 32.2266C5.96094 32.5234 5.84375 32.8438 5.71875 33.1875C5.65625 33.6094 5.625 34.0234 5.625 34.4297C5.625 34.8359 5.59375 35.2031 5.53125 35.5312C5.28125 35.7656 5.13281 35.9062 5.08594 35.9531C5.03906 36.0156 4.95312 36.0938 4.82812 36.1875C4.71875 36.25 4.60156 36.2969 4.47656 36.3281C4.38281 36.3438 4.25 36.3906 4.07812 36.4688C3.8125 36.8281 3.60938 37.0469 3.46875 37.125C3.40625 37.1562 3.34375 37.1875 3.28125 37.2188C3.21875 37.2656 3.15625 37.3125 3.09375 37.3594C2.96875 37.4531 2.875 37.5312 2.8125 37.5938C2.75 37.6562 2.65625 37.7344 2.53125 37.8281C2.1875 37.9844 1.79688 38.0469 1.35938 38.0156C0.921875 37.9844 0.53125 37.8906 0.1875 37.7344C0.109375 37.5312 0.046875 37.3281 0 37.125C0.125 36.7969 0.1875 36.5312 0.1875 36.3281C0.34375 36.0625 0.484375 35.7969 0.609375 35.5312C0.734375 35.25 0.835938 34.9688 0.914062 34.6875C1.07031 34.1406 1.32812 33.6406 1.6875 33.1875C1.75 33.1094 1.80469 33.0391 1.85156 32.9766C1.91406 32.8984 1.96094 32.8281 1.99219 32.7656C2.02344 32.7031 2.0625 32.6406 2.10938 32.5781C2.17188 32.5 2.23438 32.4219 2.29688 32.3438C2.39062 32.1406 2.49219 31.9375 2.60156 31.7344C2.71094 31.5156 2.82812 31.3047 2.95312 31.1016C3.07812 30.8828 3.1875 30.6641 3.28125 30.4453C3.39062 30.2266 3.48438 30 3.5625 29.7656C3.84375 29.3906 4.05469 28.9531 4.19531 28.4531C4.33594 27.9531 4.5 27.4844 4.6875 27.0469C4.8125 26.7812 4.92969 26.5078 5.03906 26.2266C5.14844 25.9453 5.25781 25.6562 5.36719 25.3594C5.58594 24.7344 5.85938 24.2188 6.1875 23.8125C6.26562 23.6406 6.34375 23.4688 6.42188 23.2969C6.51562 23.1094 6.60938 22.9297 6.70312 22.7578C6.79688 22.5859 6.88281 22.4141 6.96094 22.2422C7.05469 22.0547 7.14062 21.875 7.21875 21.7031C7.25 21.5938 7.28125 21.4844 7.3125 21.375C7.34375 21.2656 7.375 21.1562 7.40625 21.0469C7.4375 20.9375 7.46875 20.8281 7.5 20.7188C7.54688 20.6094 7.59375 20.5 7.64062 20.3906L7.92188 19.8281C7.96875 19.7344 8.01562 19.6406 8.0625 19.5469C8.125 19.4375 8.1875 19.3281 8.25 19.2188C8.42188 18.9375 8.57031 18.6094 8.69531 18.2344C8.75781 18.0625 8.82031 17.8906 8.88281 17.7188C8.94531 17.5469 9.01562 17.375 9.09375 17.2031C9.54688 16.1719 10 15.1719 10.4531 14.2031C10.9062 13.2344 11.3594 12.2344 11.8125 11.2031C11.9531 10.8125 12.0938 10.4297 12.2344 10.0547C12.3906 9.67969 12.5469 9.3125 12.7031 8.95312C13.0156 8.1875 13.2969 7.45312 13.5469 6.75C13.4531 6.75 13.3594 6.80469 13.2656 6.91406C13.2031 6.99219 13.125 7.07812 13.0312 7.17188C12.875 7.23438 12.7344 7.3125 12.6094 7.40625C12.4844 7.5 12.3438 7.60938 12.1875 7.73438C11.7656 8.03125 11.3125 8.42188 10.8281 8.90625C10.6719 9.03125 10.4922 9.16406 10.2891 9.30469C10.0859 9.44531 9.89062 9.57812 9.70312 9.70312C9.14062 10 8.67188 10.1562 8.29688 10.1719C8.07812 9.875 7.97656 9.71094 7.99219 9.67969C8.00781 9.64844 8 9.59375 7.96875 9.51562C7.875 9.32812 7.77344 9.24219 7.66406 9.25781C7.55469 9.27344 7.48438 9.17188 7.45312 8.95312C7.42188 8.67188 7.40625 8.45312 7.40625 8.29688C7.40625 8.0625 7.4375 7.875 7.5 7.73438C7.5625 7.60938 7.66406 7.47656 7.80469 7.33594C7.94531 7.19531 8.09375 7.0625 8.25 6.9375C8.375 6.78125 8.5 6.64062 8.625 6.51562C8.76562 6.375 8.90625 6.25 9.04688 6.14062C9.5625 5.71875 10.1094 5.35938 10.6875 5.0625C10.875 4.90625 11.1016 4.75 11.3672 4.59375C11.6328 4.4375 11.875 4.29688 12.0938 4.17188C12.3594 4.04688 12.625 3.95312 12.8906 3.89062C13.2031 3.8125 13.4375 3.73438 13.5938 3.65625C13.7344 3.57812 13.9141 3.38281 14.1328 3.07031C14.3516 2.75781 14.5156 2.54688 14.625 2.4375C14.9062 2.10938 15.1719 1.89062 15.4219 1.78125C15.6562 1.67188 15.8281 1.54688 15.9375 1.40625C16.0312 1.29688 16.1016 1.14844 16.1484 0.960938C16.1953 0.789062 16.2812 0.640625 16.4062 0.515625C16.625 0.265625 16.8203 0.117188 16.9922 0.0703125C17.1641 0.0234375 17.4219 0.078125 17.7656 0.234375H18.4219C18.6094 0.234375 18.7344 0.265625 18.7969 0.328125C18.9844 0.453125 19.1953 0.65625 19.4297 0.9375C19.6641 1.21875 19.7812 1.53125 19.7812 1.875C19.7812 2.1875 19.7344 2.5 19.6406 2.8125C19.5938 2.96875 19.5469 3.125 19.5 3.28125C19.4688 3.4375 19.4375 3.59375 19.4062 3.75C19.0312 4.53125 18.6562 5.32812 18.2812 6.14062C17.9062 6.95312 17.5469 7.76562 17.2031 8.57812C17.0781 8.82812 16.9688 9.07812 16.875 9.32812C16.7812 9.57812 16.6875 9.82812 16.5938 10.0781C16.5312 10.2188 16.5 10.375 16.5 10.5469C16.5 10.7031 16.4219 10.8281 16.2656 10.9219C16.0312 11.1875 15.8594 11.4531 15.75 11.7188C15.6562 11.9375 15.5312 12.125 15.375 12.2812L15.0938 12.8906C15.0469 12.9844 15 13.0859 14.9531 13.1953C14.9062 13.2891 14.8594 13.3906 14.8125 13.5C14.7031 13.8125 14.6406 14.0859 14.625 14.3203C14.6094 14.5391 14.5469 14.8438 14.4375 15.2344C14.375 15.5 14.2578 15.7891 14.0859 16.1016C14.0078 16.2578 13.9297 16.4141 13.8516 16.5703C13.7734 16.7109 13.7031 16.8594 13.6406 17.0156C13.5625 17.1562 13.4922 17.2969 13.4297 17.4375C13.3672 17.5781 13.3047 17.7188 13.2422 17.8594C13.1797 18 13.1172 18.1406 13.0547 18.2812C12.9922 18.4219 12.9219 18.5625 12.8438 18.7031ZM29.7656 30.0938C30.0156 29.9375 30.2188 29.7344 30.375 29.4844C30.4531 29.3594 30.5391 29.2344 30.6328 29.1094C30.7266 28.9844 30.8281 28.8594 30.9375 28.7344C31.3438 28.2656 31.7812 27.875 32.25 27.5625C32.4688 27.2344 32.7422 26.9922 33.0703 26.8359C33.3984 26.6641 33.6562 26.4062 33.8438 26.0625C33.8906 26 33.9453 25.9062 34.0078 25.7812C34.0703 25.6562 34.125 25.5625 34.1719 25.5C34.7656 24.6719 35.4062 23.9844 36.0938 23.4375C36.1875 23.3594 36.2812 23.2812 36.375 23.2031C36.4688 23.125 36.5547 23.0469 36.6328 22.9688C36.7578 22.8438 36.9688 22.6875 37.2656 22.5C37.4062 22.4219 37.5469 22.3359 37.6875 22.2422C37.8281 22.1328 37.9609 22.0156 38.0859 21.8906C38.3359 21.6406 38.625 21.4531 38.9531 21.3281C39.1562 21.2344 39.3594 21.1641 39.5625 21.1172C39.6562 21.0859 39.75 21.0625 39.8438 21.0469C39.9531 21.0156 40.0625 20.9844 40.1719 20.9531C40.3906 20.8906 40.5859 20.8359 40.7578 20.7891C40.9297 20.7422 41.125 20.75 41.3438 20.8125C41.8438 21.0156 42.2188 21.4375 42.4688 22.0781C42.5625 22.3125 42.5078 22.8047 42.3047 23.5547C42.1172 24.3047 41.8906 25.0859 41.625 25.8984C41.3594 26.6953 41.1719 27.3125 41.0625 27.75C41 27.9844 40.9844 28.1172 41.0156 28.1484C41.0469 28.1797 41.0625 28.2188 41.0625 28.2656C41 28.4219 40.9531 28.5625 40.9219 28.6875C40.8906 28.8125 40.8594 28.9531 40.8281 29.1094C40.7656 29.3594 40.7188 29.6953 40.6875 30.1172C40.6562 30.5391 40.6719 30.875 40.7344 31.125C41.0469 31.1094 41.2266 31.0781 41.2734 31.0312C41.3047 31 41.3438 30.9844 41.3906 30.9844C41.5156 30.9531 41.6172 30.9453 41.6953 30.9609C41.7734 30.9766 41.875 30.9688 42 30.9375C42.6406 30.7656 43.2188 30.4219 43.7344 29.9062C44.0156 29.7812 44.2812 29.6562 44.5312 29.5312C44.7969 29.4062 45.0469 29.2812 45.2812 29.1562C45.7188 28.8438 46.0703 28.6172 46.3359 28.4766C46.6016 28.3359 47 28.1406 47.5312 27.8906C47.7344 27.6562 48.0078 27.4609 48.3516 27.3047C48.6641 27.1641 48.9688 26.9688 49.2656 26.7188C49.3594 26.625 49.4375 26.5391 49.5 26.4609C49.5938 26.3359 49.6875 26.3125 49.7812 26.3906C49.9375 26.5469 50.0391 26.7109 50.0859 26.8828C50.1328 27.0547 50.1406 27.1719 50.1094 27.2344C49.875 27.4688 49.7422 27.6562 49.7109 27.7969C49.6797 27.9375 49.6406 28.0312 49.5938 28.0781C49.4375 28.2344 49.2031 28.375 48.8906 28.5C48.625 28.6094 48.4609 28.7109 48.3984 28.8047C48.3359 28.8984 48.2812 28.9688 48.2344 29.0156C48.1406 29.1094 48.0547 29.1797 47.9766 29.2266C47.8984 29.2734 47.8125 29.3438 47.7188 29.4375C47.6562 29.5312 47.5703 29.5859 47.4609 29.6016L47.1562 29.6719C46.9688 29.8281 46.8125 29.9688 46.6875 30.0938C46.5625 30.2188 46.4219 30.3594 46.2656 30.5156C46.0312 30.75 45.875 30.9297 45.7969 31.0547C45.7344 31.1641 45.5625 31.3125 45.2812 31.5L44.3438 32.0625C43.9062 32.2812 43.4688 32.5469 43.0312 32.8594C42.5938 33.1719 42.1562 33.4844 41.7188 33.7969C41.4375 33.9688 41.1172 34.1328 40.7578 34.2891C40.4297 34.4297 40.125 34.5938 39.8438 34.7812C39.7031 34.7812 39.6172 34.7734 39.5859 34.7578C39.5391 34.7266 39.4531 34.75 39.3281 34.8281C39.1719 34.75 39.0156 34.7422 38.8594 34.8047C38.6875 34.8828 38.5312 34.8906 38.3906 34.8281C38.2344 34.7031 38.1016 34.6016 37.9922 34.5234C37.8984 34.4453 37.8203 34.3906 37.7578 34.3594C37.6641 34.2969 37.5781 34.2188 37.5 34.125C37.4375 33.9688 37.4141 33.7969 37.4297 33.6094C37.4453 33.4219 37.4062 33.2656 37.3125 33.1406C37.3125 32.4531 37.3359 31.7969 37.3828 31.1719C37.4297 30.5469 37.5312 29.8906 37.6875 29.2031C37.7188 28.9844 37.7969 28.6094 37.9219 28.0781C38.0469 27.5312 38.1484 27.0078 38.2266 26.5078C38.3047 26.0078 38.2812 25.7188 38.1562 25.6406C37.8125 25.8281 37.4609 26.1094 37.1016 26.4844C36.9297 26.6719 36.7578 26.8438 36.5859 27C36.4141 27.1562 36.25 27.2969 36.0938 27.4219L35.3672 27.9375C35.2578 28.0156 35.1406 28.1016 35.0156 28.1953C34.8906 28.2734 34.7656 28.3594 34.6406 28.4531C34.4219 28.6094 34.2344 28.7656 34.0781 28.9219C33.9219 29.0781 33.75 29.2656 33.5625 29.4844C33.4531 29.5938 33.3438 29.7031 33.2344 29.8125C33.1406 29.9062 33.0469 30.0078 32.9531 30.1172C32.7656 30.3203 32.5469 30.5156 32.2969 30.7031C32.1406 30.8594 32.0234 30.9609 31.9453 31.0078C31.8672 31.0547 31.7656 31.1406 31.6406 31.2656L31.1953 31.7109C31.0547 31.8516 30.875 31.9688 30.6562 32.0625C30.1562 32.7344 29.5938 33.3828 28.9688 34.0078C28.3594 34.6328 27.875 35.2656 27.5156 35.9062C27.1406 36.2188 26.7422 36.4922 26.3203 36.7266C25.8984 36.9609 25.3906 36.9844 24.7969 36.7969C24.4844 36.6094 24.2812 36.4531 24.1875 36.3281C24.0938 36.2188 23.9844 36.125 23.8594 36.0469C23.8906 35.7031 23.9219 35.375 23.9531 35.0625C23.9844 34.75 24.0781 34.4219 24.2344 34.0781L24.5156 33.6094C24.6719 33.3438 24.7734 33.0312 24.8203 32.6719C24.8672 32.2969 24.9688 31.9688 25.125 31.6875C25.3125 31.375 25.4297 31.1172 25.4766 30.9141C25.5234 30.7266 25.5938 30.5469 25.6875 30.375C25.7656 30.1875 25.8516 30.0391 25.9453 29.9297C26.0391 29.8203 26.125 29.6719 26.2031 29.4844C26.2812 29.3125 26.3906 29.1328 26.5312 28.9453C26.6719 28.7578 26.7812 28.5781 26.8594 28.4062C27.0469 27.7344 27.2969 27.0469 27.6094 26.3438C27.6719 26.125 27.7344 25.9141 27.7969 25.7109C27.8594 25.5078 27.9375 25.3125 28.0312 25.125C28.1094 24.9531 28.1875 24.7812 28.2656 24.6094C28.3438 24.4375 28.4219 24.2734 28.5 24.1172C28.5781 23.9453 28.6562 23.7812 28.7344 23.625C28.8125 23.4531 28.8906 23.2812 28.9688 23.1094C29.0625 22.9219 29.1484 22.7578 29.2266 22.6172C29.3047 22.4766 29.4062 22.3281 29.5312 22.1719C29.5781 22.0938 29.625 22.0156 29.6719 21.9375C29.7188 21.8594 29.7578 21.7812 29.7891 21.7031C29.8203 21.625 29.8594 21.5469 29.9062 21.4688C29.9531 21.3906 30 21.3125 30.0469 21.2344C30.0938 21.1562 30.1406 21.0781 30.1875 21C30.2344 20.9062 30.2734 20.8047 30.3047 20.6953C30.3672 20.4922 30.4844 20.2969 30.6562 20.1094C30.7656 19.9844 30.8594 19.8672 30.9375 19.7578C31.0312 19.6328 31.1094 19.5156 31.1719 19.4062C31.2812 19.2031 31.4844 19.0625 31.7812 18.9844C32.0469 19.1094 32.3203 19.0625 32.6016 18.8438C32.8984 18.6094 33.1406 18.625 33.3281 18.8906C33.7656 19.1719 34.0625 19.3906 34.2188 19.5469C34.4062 19.7188 34.5312 19.8906 34.5938 20.0625C34.75 20.3438 34.7656 20.6328 34.6406 20.9297C34.5156 21.2266 34.2969 21.4844 33.9844 21.7031C33.875 22.1875 33.6562 22.6875 33.3281 23.2031C33.1719 23.4375 33.0234 23.6719 32.8828 23.9062C32.7422 24.125 32.6094 24.3438 32.4844 24.5625L32.1094 25.5C31.9219 25.9375 31.7266 26.375 31.5234 26.8125C31.3203 27.25 31.0938 27.6719 30.8438 28.0781C30.6406 28.5 30.4844 28.7734 30.375 28.8984C30.2812 29.0234 30.1953 29.1484 30.1172 29.2734C30.0547 29.3828 29.9375 29.6562 29.7656 30.0938ZM69.7969 22.3125C69.9531 22.3281 70.0547 22.3906 70.1016 22.5C70.1484 22.5938 70.2344 22.6406 70.3594 22.6406C70.4219 22.9375 70.3594 23.1484 70.1719 23.2734C69.9844 23.3828 69.9219 23.5625 69.9844 23.8125C69.7031 24 69.3594 24.1172 68.9531 24.1641C68.5312 24.2109 68.2188 24.375 68.0156 24.6562C67.4688 24.9219 66.8984 25.0859 66.3047 25.1484C66.0078 25.1797 65.6953 25.2266 65.3672 25.2891C65.0547 25.3359 64.7344 25.3906 64.4062 25.4531C64.0625 25.6875 63.8516 25.8125 63.7734 25.8281C63.6641 25.8438 63.5469 25.8906 63.4219 25.9688C63.0938 25.8438 62.7656 25.7812 62.4375 25.7812C62.1094 25.7812 61.7656 25.7344 61.4062 25.6406C61.2344 25.7031 61.0547 25.7344 60.8672 25.7344C60.6797 25.7344 60.5 25.7656 60.3281 25.8281C60.2031 26.1094 60.1406 26.3906 60.1406 26.6719C60.1406 26.9688 60.0938 27.25 60 27.5156L59.7188 28.0781L59.6484 28.5234C59.6172 28.7109 59.5781 28.8594 59.5312 28.9688C59.4688 29.0625 59.3984 29.1719 59.3203 29.2969C59.2422 29.4219 59.2031 29.5625 59.2031 29.7188C58.9844 30 58.8281 30.2891 58.7344 30.5859C58.6406 30.9297 58.4688 31.2031 58.2188 31.4062C58.125 31.7344 57.9766 31.9844 57.7734 32.1562C57.5703 32.3438 57.375 32.5625 57.1875 32.8125C56.8438 33.2812 56.5391 33.6875 56.2734 34.0312C56.0078 34.375 55.6562 34.6719 55.2188 34.9219C55.0625 35.1719 54.875 35.3438 54.6562 35.4375C54.5 35.5938 54.375 35.75 54.2812 35.9062L53.3438 36.4688C52.9688 36.7031 52.6094 36.8594 52.2656 36.9375C51.7344 37.0625 51.2188 37.0469 50.7188 36.8906C50.2188 36.7344 49.75 36.5156 49.3125 36.2344C49.0156 36.2656 48.7891 36.2109 48.6328 36.0703C48.4766 35.9453 48.2656 35.8438 48 35.7656C47.6562 35.4531 47.2812 35.1719 46.875 34.9219C46.4531 34.6562 46.1562 34.3125 45.9844 33.8906L45.7734 32.8594C45.7109 32.5469 45.6406 32.2344 45.5625 31.9219C45.5 31.6562 45.4922 31.3594 45.5391 31.0312C45.5859 30.75 45.5938 30.4375 45.5625 30.0938C45.5625 29.9219 45.5625 29.7656 45.5625 29.625C45.5625 29.4688 45.5547 29.3359 45.5391 29.2266C45.5234 28.9922 45.5938 28.7031 45.75 28.3594C45.8438 28.1562 45.9219 27.9688 45.9844 27.7969C46.0469 27.625 46.0938 27.4766 46.125 27.3516C46.1562 27.2266 46.1875 27.1094 46.2188 27C46.25 26.875 46.2812 26.7656 46.3125 26.6719C46.3594 26.5938 46.4062 26.5156 46.4531 26.4375C46.5 26.3438 46.5469 26.25 46.5938 26.1562C46.6406 26.0625 46.6875 25.9766 46.7344 25.8984C46.7969 25.8047 46.8594 25.7188 46.9219 25.6406C47.1094 25.3594 47.3281 25.0781 47.5781 24.7969C47.8281 24.5156 48.0781 24.25 48.3281 24C48.5 23.7656 48.6719 23.5625 48.8438 23.3906C49.125 23.1094 49.3906 22.875 49.6406 22.6875C49.8906 22.5 50.1719 22.25 50.4844 21.9375C50.5469 21.8438 50.625 21.7656 50.7188 21.7031L51 21.5156C51.3125 21.3281 51.6016 21.1719 51.8672 21.0469C52.1328 20.9219 52.4375 20.7812 52.7812 20.625C53.0781 20.4844 53.3203 20.3984 53.5078 20.3672C53.6328 20.3359 53.7578 20.3125 53.8828 20.2969C54.0234 20.2656 54.1719 20.2344 54.3281 20.2031H54.8906C55.0625 20.2031 55.2188 20.1719 55.3594 20.1094C55.2656 19.8594 55.375 19.6875 55.6875 19.5938C56 19.5 56.2344 19.4688 56.3906 19.5C56.7031 19.5 56.9531 19.5703 57.1406 19.7109C57.3281 19.8516 57.5 20.0156 57.6562 20.2031C57.9688 20.4219 58.3125 20.75 58.6875 21.1875C58.7656 21.2656 58.8438 21.3125 58.9219 21.3281C59 21.3438 59.0781 21.3906 59.1562 21.4688C59.2812 21.6562 59.3672 21.8281 59.4141 21.9844C59.4609 22.1719 59.5625 22.3438 59.7188 22.5C59.8125 22.5625 59.9062 22.6406 60 22.7344C60.0938 22.8281 60.1562 22.9531 60.1875 23.1094C60.5156 23.2344 60.8125 23.3281 61.0781 23.3906C61.2188 23.4531 61.3828 23.4688 61.5703 23.4375C61.7422 23.4062 61.9375 23.4062 62.1562 23.4375C62.2969 23.4531 62.4375 23.4922 62.5781 23.5547C62.7031 23.6016 62.8438 23.625 63 23.625C63.2344 23.6094 63.4922 23.5469 63.7734 23.4375C64.0391 23.3438 64.3438 23.3281 64.6875 23.3906C65.1562 23.5 65.6484 23.4531 66.1641 23.25C66.6797 23.0312 67.2031 22.8906 67.7344 22.8281C67.8906 22.8281 68 22.8203 68.0625 22.8047C68.125 22.7891 68.2344 22.7812 68.3906 22.7812C68.5469 22.6562 68.75 22.5625 69 22.5C69.25 22.4375 69.5156 22.375 69.7969 22.3125ZM56.3906 23.7188C56.0781 23.4375 55.8984 23.2578 55.8516 23.1797C55.7891 23.0859 55.7344 23.0312 55.6875 23.0156C55.5469 22.875 55.3906 22.7969 55.2188 22.7812C55.125 22.7656 55.0312 22.75 54.9375 22.7344C54.8594 22.7188 54.7812 22.7031 54.7031 22.6875C54.2031 22.5938 53.7891 22.6484 53.4609 22.8516C53.3047 22.9609 53.1406 23.0625 52.9688 23.1562C52.8125 23.25 52.6562 23.3438 52.5 23.4375C52 23.75 51.5625 24.1406 51.1875 24.6094C51.0938 24.7656 50.9922 24.9375 50.8828 25.125C50.7734 25.3125 50.6875 25.5156 50.625 25.7344C50.5 25.9844 50.3906 26.2109 50.2969 26.4141C50.2031 26.6172 50.125 26.8594 50.0625 27.1406C49.9062 27.4375 49.8125 27.6953 49.7812 27.9141C49.7656 28.0234 49.75 28.125 49.7344 28.2188C49.7188 28.2969 49.7031 28.375 49.6875 28.4531C49.6719 28.6094 49.6484 28.7734 49.6172 28.9453C49.5859 29.1016 49.5547 29.2656 49.5234 29.4375C49.4453 29.8281 49.4062 30.125 49.4062 30.3281C49.4375 30.4219 49.4844 30.5469 49.5469 30.7031C49.6094 30.8594 49.6719 30.9688 49.7344 31.0312C49.7969 31.1875 49.8672 31.3594 49.9453 31.5469C50.0234 31.7344 50.0938 31.875 50.1562 31.9688C50.3281 32.1875 50.5312 32.3281 50.7656 32.3906C50.8906 32.4219 51.0234 32.4609 51.1641 32.5078C51.3047 32.5391 51.4531 32.5781 51.6094 32.625C51.9531 32.8125 52.1875 32.8906 52.3125 32.8594C52.4688 32.8281 52.5625 32.8125 52.5938 32.8125C53.0156 32.7344 53.375 32.5625 53.6719 32.2969C53.9375 32.0469 54.25 31.8281 54.6094 31.6406C54.7344 31.4531 54.8594 31.2578 54.9844 31.0547C55.125 30.8516 55.2734 30.6484 55.4297 30.4453C55.5859 30.2266 55.7266 30.0156 55.8516 29.8125C55.9922 29.5938 56.125 29.375 56.25 29.1562C56.3281 29.0625 56.4062 28.9219 56.4844 28.7344C56.5156 28.6562 56.5469 28.5859 56.5781 28.5234C56.6094 28.4453 56.6406 28.375 56.6719 28.3125C56.8906 28.0469 56.9922 27.9062 56.9766 27.8906C56.9609 27.875 56.9688 27.8281 57 27.75C57.2031 27.2812 57.2969 26.9219 57.2812 26.6719C57.2656 26.4219 57.2656 26.1719 57.2812 25.9219C57.2031 25.75 57.1328 25.5703 57.0703 25.3828C57.0078 25.1953 56.9453 25 56.8828 24.7969C56.7578 24.375 56.5938 24.0156 56.3906 23.7188ZM67.5469 32.5312C67.9531 32.3594 68.3281 32.1406 68.6719 31.875C68.9219 31.5312 69.1875 31.2031 69.4688 30.8906C69.75 30.5781 70.0469 30.2656 70.3594 29.9531C70.4531 29.8594 70.5469 29.7656 70.6406 29.6719C70.7344 29.5781 70.8203 29.4844 70.8984 29.3906C70.9766 29.2969 71.0625 29.2031 71.1562 29.1094C71.2656 29 71.375 28.8906 71.4844 28.7812C71.5625 28.7031 71.625 28.6484 71.6719 28.6172C71.7188 28.5859 71.7812 28.5156 71.8594 28.4062C72.0312 28.1875 72.1719 27.9766 72.2812 27.7734C72.3906 27.5859 72.5469 27.375 72.75 27.1406C72.9531 27.0312 73.1562 26.8594 73.3594 26.625C73.4531 26.5156 73.5469 26.4141 73.6406 26.3203C73.7344 26.2109 73.8281 26.1094 73.9219 26.0156L74.1328 25.8281C74.1641 25.7969 74.1953 25.7656 74.2266 25.7344C74.2734 25.7031 74.3125 25.6719 74.3438 25.6406C74.4375 25.5469 74.5078 25.4375 74.5547 25.3125C74.5859 25.25 74.6094 25.1875 74.625 25.125C74.6562 25.0625 74.6875 25 74.7188 24.9375C75 24.4688 75.25 24.0781 75.4688 23.7656C76.1562 23.3906 76.8594 23.0625 77.5781 22.7812C78.2969 22.5 78.9844 22.375 79.6406 22.4062C79.6719 22.4375 79.7656 22.5 79.9219 22.5938C80.0469 22.6719 80.1406 22.7812 80.2031 22.9219C80.3594 23.1719 80.3906 23.4688 80.2969 23.8125C80.2031 24.1562 80.0469 24.4062 79.8281 24.5625C79.5781 25.2812 79.4062 26.0938 79.3125 27C79.2188 27.9062 79.1875 28.7656 79.2188 29.5781C79.1406 29.6719 79.1172 29.8047 79.1484 29.9766C79.1641 30.1328 79.125 30.25 79.0312 30.3281C79.1562 30.5781 79.3125 30.8281 79.5 31.0781C79.6875 31.3281 79.9531 31.4531 80.2969 31.4531C80.6719 31.3594 80.9062 31.3125 81 31.3125C81.0625 31.3125 81.1406 31.2969 81.2344 31.2656C81.3906 31.1719 81.4922 31.1016 81.5391 31.0547C81.6328 30.9609 81.7188 30.9062 81.7969 30.8906C81.8906 30.7344 81.9531 30.6406 81.9844 30.6094C82.0156 30.5781 82.0781 30.5 82.1719 30.375C82.5156 29.9531 82.8203 29.5469 83.0859 29.1562L83.9531 27.8906C84.0469 27.7344 84.1328 27.5938 84.2109 27.4688C84.3047 27.3281 84.3828 27.2031 84.4453 27.0938C84.5234 26.9844 84.5938 26.8516 84.6562 26.6953C84.7344 26.5391 84.8125 26.3594 84.8906 26.1562L85.1016 25.6641C85.1484 25.5547 85.2188 25.375 85.3125 25.125C85.3906 24.9375 85.3906 24.6797 85.3125 24.3516C85.25 24.0234 85.25 23.7812 85.3125 23.625C85.4688 23.4219 85.5469 23.2344 85.5469 23.0625C85.7656 22.7031 85.875 22.5 85.875 22.4531C85.875 22.4219 85.8906 22.3594 85.9219 22.2656C85.9844 22.2031 86.0469 22.1328 86.1094 22.0547C86.1719 21.9766 86.2031 21.875 86.2031 21.75C86.7188 21.2344 87.3594 20.8281 88.125 20.5312C88.6562 20.4375 89.1484 20.3047 89.6016 20.1328C90.0234 19.9766 90.3594 20.0312 90.6094 20.2969C90.5312 20.3906 90.5469 20.4766 90.6562 20.5547C90.75 20.6172 90.7969 20.7031 90.7969 20.8125C90.8281 20.9844 90.8203 21.1094 90.7734 21.1875C90.7266 21.2812 90.7031 21.375 90.7031 21.4688C90.5156 21.8125 90.4062 21.9844 90.375 21.9844C90.3438 21.9844 90.3125 22 90.2812 22.0312C90.2344 22.1094 90.1797 22.2578 90.1172 22.4766C90.1016 22.5547 90.0781 22.6406 90.0469 22.7344C90.0156 22.8281 89.9844 22.9219 89.9531 23.0156C89.8594 23.2656 89.75 23.5391 89.625 23.8359C89.5 24.1328 89.3438 24.4219 89.1562 24.7031C89 25.0781 88.9766 25.3203 89.0859 25.4297C89.1953 25.5391 89.25 25.6719 89.25 25.8281C89.3438 25.9062 89.4453 25.9531 89.5547 25.9688C89.6641 25.9844 89.7656 26.0312 89.8594 26.1094C89.9844 26.2031 90.0703 26.2812 90.1172 26.3438C90.1797 26.4219 90.2969 26.5 90.4688 26.5781C90.6094 26.6094 90.7422 26.6172 90.8672 26.6016C90.9766 26.5859 91.1562 26.5938 91.4062 26.625C91.6562 26.6562 91.8203 26.6562 91.8984 26.625C91.9766 26.5938 92.0938 26.5156 92.25 26.3906C92.6094 26.2031 92.8203 26.0625 92.8828 25.9688C92.9297 25.9062 93 25.8281 93.0938 25.7344C93.2344 25.6719 93.3828 25.6406 93.5391 25.6406C93.6953 25.6406 93.8281 25.6094 93.9375 25.5469C94.2812 25.4219 94.6641 25.2656 95.0859 25.0781C95.5078 24.8906 95.8906 24.7031 96.2344 24.5156C96.3906 24.4531 96.5391 24.3906 96.6797 24.3281C96.8203 24.2656 96.9219 24.1562 96.9844 24C97.1094 23.9688 97.1953 23.9453 97.2422 23.9297C97.2734 23.9141 97.375 23.9062 97.5469 23.9062C97.625 24.0938 97.7031 24.2344 97.7812 24.3281C97.875 24.4531 97.8281 24.6094 97.6406 24.7969C97.2812 25.1562 96.8672 25.4688 96.3984 25.7344C95.9453 26 95.5312 26.3281 95.1562 26.7188C94.9688 26.7969 94.7891 26.8828 94.6172 26.9766C94.4453 27.0547 94.2812 27.1484 94.125 27.2578C93.8281 27.4609 93.4531 27.625 93 27.75C92.7656 27.8906 92.5625 28.0156 92.3906 28.125C92.2188 28.2188 92.0781 28.3047 91.9688 28.3828C91.75 28.5391 91.5625 28.625 91.4062 28.6406C91.125 28.6406 90.8516 28.6484 90.5859 28.6641C90.3359 28.6641 90.0938 28.6719 89.8594 28.6875C89.6875 28.7188 89.5547 28.7031 89.4609 28.6406C89.3984 28.6094 89.25 28.5469 89.0156 28.4531C88.5938 28.3438 88.2812 28.1875 88.0781 27.9844C87.9844 27.8906 87.8906 27.8047 87.7969 27.7266C87.7031 27.6328 87.6094 27.5469 87.5156 27.4688C87.4062 27.6406 87.2969 27.8203 87.1875 28.0078C87.0938 28.1953 87.0078 28.3906 86.9297 28.5938C86.7578 29 86.5469 29.3438 86.2969 29.625C86.1875 29.9688 86.0625 30.2344 85.9219 30.4219C85.7656 30.625 85.625 30.9062 85.5 31.2656C85.3438 31.4375 85.1953 31.6172 85.0547 31.8047C84.9297 31.9922 84.8125 32.1953 84.7031 32.4141C84.4844 32.8516 84.2031 33.2188 83.8594 33.5156C83.1562 34.4062 82.2344 35.1719 81.0938 35.8125C80.8906 35.75 80.6719 35.7812 80.4375 35.9062C80.2188 36.0312 80.0312 36.0469 79.875 35.9531C79.2188 36.1094 78.7891 36.0625 78.5859 35.8125C78.3828 35.5625 78.1719 35.3906 77.9531 35.2969C77.6719 34.8438 77.5078 34.4531 77.4609 34.125C77.4141 33.7969 77.3438 33.4531 77.25 33.0938C77.1875 32.9062 77.1172 32.7422 77.0391 32.6016C76.9766 32.4609 76.9531 32.3125 76.9688 32.1562C76.8594 31.6875 76.7578 31.3516 76.6641 31.1484C76.6016 31.0234 76.5469 30.8828 76.5 30.7266C76.4688 30.5703 76.4375 30.4062 76.4062 30.2344C76.3906 30.0938 76.375 29.9531 76.3594 29.8125C76.3594 29.6719 76.3672 29.5312 76.3828 29.3906C76.3984 29.125 76.3594 28.8281 76.2656 28.5C75.7031 28.5938 75.3516 28.7891 75.2109 29.0859C75.0703 29.3828 74.875 29.6094 74.625 29.7656C74.5156 30.0938 74.3438 30.3516 74.1094 30.5391C73.9062 30.6953 73.7188 30.9531 73.5469 31.3125C73.2031 31.5 72.8984 31.75 72.6328 32.0625C72.3516 32.3906 72.0469 32.6875 71.7188 32.9531C71.4375 33.125 71.2266 33.2812 71.0859 33.4219C70.9609 33.5469 70.8281 33.6406 70.6875 33.7031C70.5938 33.8594 70.4688 34.0078 70.3125 34.1484C70.2031 34.2422 70.0469 34.3906 69.8438 34.5938C69.6406 34.7969 69.5 34.9453 69.4219 35.0391C69.2812 35.1953 69.1406 35.3281 69 35.4375C68.875 35.5938 68.7578 35.7109 68.6484 35.7891C68.5391 35.8672 68.4375 35.9375 68.3438 36C68.2188 36.0938 68.125 36.1797 68.0625 36.2578C67.9688 36.3828 67.8906 36.4531 67.8281 36.4688C67.6094 36.6094 67.4141 36.7266 67.2422 36.8203C67.0703 36.9297 66.9219 37.0234 66.7969 37.1016C66.5469 37.2422 66.3281 37.2656 66.1406 37.1719C65.8906 37.2344 65.6562 37.1953 65.4375 37.0547C65.2188 36.9141 65.0156 36.7812 64.8281 36.6562C64.75 36.5469 64.6719 36.4375 64.5938 36.3281C64.5156 36.2344 64.4375 36.1406 64.3594 36.0469C64.2188 35.875 64.1094 35.6562 64.0312 35.3906C63.8438 35.1406 63.6719 34.8516 63.5156 34.5234C63.3594 34.1953 63.2188 33.8594 63.0938 33.5156C63.0781 32.875 63.0312 32.4062 62.9531 32.1094C62.8906 31.8438 62.875 31.5312 62.9062 31.1719C62.9219 30.8125 63.0391 30.4766 63.2578 30.1641C63.4766 29.8516 63.6406 29.5469 63.75 29.25C63.7344 28.9844 63.7812 28.7969 63.8906 28.6875C64.0156 28.5625 64.0625 28.4062 64.0312 28.2188C64.2969 27.5 64.5938 26.9297 64.9219 26.5078C65.2344 26.1016 65.4688 25.6406 65.625 25.125C65.7812 24.5938 65.9766 24.1328 66.2109 23.7422C66.4297 23.3672 66.625 22.9219 66.7969 22.4062C66.9375 22.1406 67.0391 21.9062 67.1016 21.7031C67.1641 21.4688 67.2812 21.2188 67.4531 20.9531C67.5781 20.8281 67.6641 20.7344 67.7109 20.6719C67.7578 20.6094 67.8438 20.5312 67.9688 20.4375C68.2344 20.3594 68.4531 20.25 68.625 20.1094C68.7969 19.9688 69.0156 19.8594 69.2812 19.7812C69.4688 19.7188 69.6484 19.6875 69.8203 19.6875C69.9609 19.6875 70.1094 19.6406 70.2656 19.5469C70.6562 19.2969 70.9297 19.1562 71.0859 19.125C71.2109 19.1094 71.3594 19.0625 71.5312 18.9844C71.75 19.1719 71.9219 19.3672 72.0469 19.5703C72.1719 19.7734 72.2031 20.0312 72.1406 20.3438C71.9375 20.5469 71.8281 20.6953 71.8125 20.7891C71.7969 20.8984 71.75 21 71.6719 21.0938C71.5938 21.2188 71.5 21.3281 71.3906 21.4219C71.2812 21.5156 71.1875 21.625 71.1094 21.75C71.0781 21.8125 71.0469 21.875 71.0156 21.9375C71 21.9844 70.9766 22.0312 70.9453 22.0781C70.8828 22.2031 70.8281 22.2969 70.7812 22.3594L70.5703 22.5469C70.4766 22.6406 70.4062 22.7188 70.3594 22.7812C70.2812 22.8594 70.2344 22.9375 70.2188 23.0156C70.2031 23.1094 70.1562 23.2031 70.0781 23.2969C69.9844 23.4375 69.8359 23.5781 69.6328 23.7188C69.4922 23.8281 69.375 23.9531 69.2812 24.0938C69.2344 24.2344 69.1797 24.4609 69.1172 24.7734C69.1016 24.8984 69.0781 25.0312 69.0469 25.1719C69.0156 25.2969 68.9844 25.4219 68.9531 25.5469C68.8438 25.8906 68.6719 26.2891 68.4375 26.7422C68.1719 27.2578 67.9844 27.6719 67.875 27.9844C67.8438 28.125 67.8125 28.2656 67.7812 28.4062C67.7656 28.5469 67.7422 28.6797 67.7109 28.8047C67.6953 28.9297 67.6719 29.0625 67.6406 29.2031C67.6094 29.3281 67.5781 29.4531 67.5469 29.5781C67.5156 29.7031 67.4688 29.8125 67.4062 29.9062C67.3438 30 67.2969 30.0938 67.2656 30.1875C67.1094 30.625 67.0234 31.0938 67.0078 31.5938C66.9922 32.0938 67.1719 32.4062 67.5469 32.5312ZM93.8906 25.5C94.0938 25.3906 94.3438 25.1562 94.6406 24.7969C94.9375 24.4219 95.2266 24.0625 95.5078 23.7188C95.7891 23.3594 96 23.1562 96.1406 23.1094C96.2344 22.9531 96.3203 22.8203 96.3984 22.7109C96.4766 22.6016 96.5938 22.5 96.75 22.4062C97 21.9531 97.3281 21.5703 97.7344 21.2578C98.1562 20.9297 98.5469 20.5781 98.9062 20.2031C99.2031 20.0781 99.5 19.9375 99.7969 19.7812C100.109 19.625 100.414 19.4453 100.711 19.2422C101.32 18.8359 102 18.625 102.75 18.6094C103.094 18.7656 103.43 18.8125 103.758 18.75C104.07 18.6875 104.375 18.7656 104.672 18.9844C104.844 19.2812 104.984 19.4609 105.094 19.5234C105.203 19.5859 105.297 19.6719 105.375 19.7812C105.5 20.1719 105.594 20.4297 105.656 20.5547C105.734 20.6797 105.781 20.8125 105.797 20.9531C105.812 21.1875 105.828 21.3906 105.844 21.5625C105.859 21.7188 105.875 21.8516 105.891 21.9609C105.906 22.1641 105.906 22.3594 105.891 22.5469C105.797 23.3438 105.641 24.1406 105.422 24.9375C105.391 25.0312 105.359 25.125 105.328 25.2188C105.297 25.3125 105.266 25.4141 105.234 25.5234C105.172 25.7266 105.094 25.9062 105 26.0625C104.766 26.3594 104.602 26.6016 104.508 26.7891C104.367 27.0391 104.266 27.2031 104.203 27.2812C104.016 27.4688 103.836 27.6406 103.664 27.7969C103.508 27.9531 103.359 28.0938 103.219 28.2188C103.078 28.2969 102.938 28.3828 102.797 28.4766C102.656 28.5547 102.516 28.6406 102.375 28.7344C102.109 28.9062 101.797 29.0312 101.438 29.1094L101.016 29.3672C100.875 29.4609 100.719 29.5156 100.547 29.5312C100.266 29.7344 99.9531 29.8984 99.6094 30.0234C99.4531 30.0859 99.2891 30.1484 99.1172 30.2109C98.9609 30.2734 98.7969 30.3438 98.625 30.4219C98.3906 30.5156 98.1875 30.625 98.0156 30.75C97.8438 30.875 97.625 31 97.3594 31.125C97.2188 31.1719 96.9922 31.2266 96.6797 31.2891C96.3828 31.3359 96.1719 31.3906 96.0469 31.4531C96.2031 31.7656 96.2656 32.1562 96.2344 32.625C96.2188 33.0625 96.2969 33.4531 96.4688 33.7969C96.875 33.8906 97.3203 33.9609 97.8047 34.0078C98.2891 34.0547 98.75 34.0469 99.1875 33.9844C99.2656 33.9688 99.3438 33.9453 99.4219 33.9141C99.5156 33.8828 99.6094 33.8516 99.7031 33.8203C99.7969 33.7891 99.8906 33.7578 99.9844 33.7266C100.078 33.6953 100.172 33.6719 100.266 33.6562C100.609 33.5938 100.945 33.5156 101.273 33.4219C101.602 33.3281 101.891 33.2031 102.141 33.0469C103.047 32.7344 103.922 32.3125 104.766 31.7812C105.609 31.25 106.344 30.6719 106.969 30.0469C107.344 29.7969 107.758 29.4531 108.211 29.0156C108.664 28.5781 109.016 28.1719 109.266 27.7969C109.734 27.2969 110.148 26.9062 110.508 26.625C110.867 26.3438 111.203 26.2188 111.516 26.25C111.766 26.25 112.008 26.3984 112.242 26.6953C112.477 26.9922 112.453 27.3125 112.172 27.6562C111.875 27.8438 111.547 28.125 111.188 28.5C110.844 28.875 110.484 29.1406 110.109 29.2969C109.844 29.4688 109.492 29.8125 109.055 30.3281C108.633 30.8125 108.281 31.1875 108 31.4531C107.938 31.5156 107.867 31.5859 107.789 31.6641C107.711 31.7422 107.617 31.8203 107.508 31.8984C107.305 32.0547 107.141 32.2188 107.016 32.3906C106.531 32.7969 106.062 33.1406 105.609 33.4219C105.438 33.3594 105.297 33.3906 105.188 33.5156C105.047 33.6875 104.922 33.8125 104.812 33.8906C104.766 33.9219 104.719 33.9531 104.672 33.9844C104.625 34.0156 104.57 34.0469 104.508 34.0781C104.445 34.1094 104.391 34.1406 104.344 34.1719C104.297 34.2031 104.25 34.2344 104.203 34.2656C103.953 34.4844 103.68 34.7031 103.383 34.9219C103.086 35.1406 102.781 35.3281 102.469 35.4844C102.156 35.6719 101.844 35.8438 101.531 36C101.219 36.1719 100.906 36.3203 100.594 36.4453C100.281 36.5703 99.9688 36.7188 99.6562 36.8906C99.3594 37.0625 99.0625 37.25 98.7656 37.4531L98.25 37.5234C98.1719 37.5391 98.0938 37.5469 98.0156 37.5469C97.9375 37.5625 97.8594 37.5781 97.7812 37.5938C97.6094 37.6562 97.4453 37.6875 97.2891 37.6875C97.1328 37.6875 96.9375 37.6562 96.7031 37.5938C95.6719 37.3125 94.8281 36.8125 94.1719 36.0938C94.0781 36 93.9766 35.9141 93.8672 35.8359C93.7734 35.7422 93.6719 35.6562 93.5625 35.5781C93.3125 35.3906 93.1406 35.2188 93.0469 35.0625C92.9062 34.8281 92.7656 34.4609 92.625 33.9609C92.4688 33.4609 92.3359 32.9531 92.2266 32.4375C92.1172 31.9062 92.0625 31.5 92.0625 31.2188C92.1562 31.0312 92.2578 30.7109 92.3672 30.2578C92.4766 29.7891 92.5703 29.3281 92.6484 28.875C92.7266 28.4062 92.7656 28.0781 92.7656 27.8906C92.8281 27.8281 92.9531 27.625 93.1406 27.2812C93.3125 26.9219 93.4766 26.5625 93.6328 26.2031C93.8047 25.8281 93.8906 25.5938 93.8906 25.5ZM101.438 22.5C101.219 22.7812 101 23.0469 100.781 23.2969C100.562 23.5469 100.312 23.7812 100.031 24C99.8438 24.3438 99.625 24.6562 99.375 24.9375C99.125 25.2188 98.875 25.4844 98.625 25.7344C98.5 25.9844 98.3594 26.1797 98.2031 26.3203C98.0469 26.4609 97.875 26.6094 97.6875 26.7656C97.4844 27.1094 97.2344 27.4375 96.9375 27.75C96.6406 28.0625 96.5781 28.4219 96.75 28.8281C97.0938 28.8906 97.4375 28.8438 97.7812 28.6875C98.125 28.5312 98.4219 28.3906 98.6719 28.2656C98.7969 28.1875 98.9219 28.1172 99.0469 28.0547C99.1875 27.9922 99.3203 27.9297 99.4453 27.8672C99.5703 27.8047 99.6953 27.7422 99.8203 27.6797C99.9453 27.6172 100.062 27.5469 100.172 27.4688L101.391 26.25C101.578 26.0781 101.766 25.875 101.953 25.6406C102.031 25.5312 102.109 25.4219 102.188 25.3125C102.281 25.1875 102.375 25.0625 102.469 24.9375C102.547 24.5938 102.672 24.2734 102.844 23.9766C103.031 23.6641 103.109 23.3438 103.078 23.0156C103.062 22.875 103.008 22.7109 102.914 22.5234C102.82 22.3359 102.766 22.1875 102.75 22.0781C102.422 22.0781 102.18 22.1328 102.023 22.2422C101.945 22.3047 101.852 22.3594 101.742 22.4062C101.648 22.4375 101.547 22.4688 101.438 22.5ZM124.125 24.7969C124.438 24.875 124.664 24.9844 124.805 25.125C124.914 25.2344 124.969 25.3594 124.969 25.5C124.719 25.8438 124.57 26.0703 124.523 26.1797C124.477 26.2891 124.375 26.375 124.219 26.4375C124.016 26.75 123.797 27.0469 123.562 27.3281C123.344 27.5938 123.102 27.8516 122.836 28.1016C122.352 28.5703 121.875 29.1094 121.406 29.7188C121.203 29.9219 121.062 30.0781 120.984 30.1875C120.906 30.2969 120.766 30.4531 120.562 30.6562C120.188 30.9219 119.875 31.1953 119.625 31.4766C119.484 31.6328 119.336 31.7812 119.18 31.9219C119.039 32.0469 118.891 32.1719 118.734 32.2969C118.656 32.3594 118.578 32.4219 118.5 32.4844C118.438 32.5312 118.367 32.5859 118.289 32.6484C118.227 32.7109 118.156 32.7734 118.078 32.8359C118 32.8984 117.922 32.9688 117.844 33.0469C117.719 33.1719 117.578 33.2969 117.422 33.4219C117.359 33.4688 117.289 33.5234 117.211 33.5859C117.148 33.6328 117.078 33.6875 117 33.75C116.812 33.9688 116.625 34.1875 116.438 34.4062C116.25 34.625 116.062 34.8594 115.875 35.1094C115.547 35.2656 115.234 35.4531 114.938 35.6719C114.656 35.875 114.328 36.0625 113.953 36.2344C113.797 36.3281 113.648 36.4766 113.508 36.6797C113.383 36.8672 113.203 37 112.969 37.0781C112.719 37.1719 112.453 37.1953 112.172 37.1484C111.891 37.1016 111.656 37.0312 111.469 36.9375C111.266 36.7969 111.141 36.7188 111.094 36.7031C110.969 36.6719 110.891 36.6562 110.859 36.6562C110.562 36.2344 110.359 35.7891 110.25 35.3203C110.188 35.0703 110.117 34.8203 110.039 34.5703C109.977 34.3203 109.906 34.0625 109.828 33.7969C109.766 33.6406 109.719 33.4766 109.688 33.3047C109.656 33.1328 109.625 32.9375 109.594 32.7188L109.523 32.3438C109.508 32.2812 109.492 32.2188 109.477 32.1562C109.461 32.0781 109.438 32 109.406 31.9219C109.344 31.7656 109.281 31.6016 109.219 31.4297C109.156 31.2578 109.109 31.0781 109.078 30.8906C109.016 30.5156 108.992 30.1484 109.008 29.7891C109.023 29.4297 109.062 29.0781 109.125 28.7344C109.312 27.7031 109.586 26.7188 109.945 25.7812C110.305 24.8438 110.672 23.9531 111.047 23.1094C111.125 22.7188 111.211 22.4219 111.305 22.2188C111.398 22.0156 111.5 21.7344 111.609 21.375C111.75 21.2031 111.859 20.9531 111.938 20.625C111.969 20.4844 112 20.3438 112.031 20.2031C112.078 20.0625 112.125 19.9219 112.172 19.7812C112.219 19.6562 112.273 19.5312 112.336 19.4062C112.398 19.2656 112.461 19.1172 112.523 18.9609C112.648 18.6797 112.75 18.3906 112.828 18.0938C112.938 17.7344 113.023 17.4219 113.086 17.1562C113.117 17 113.156 16.8516 113.203 16.7109C113.266 16.5703 113.328 16.4375 113.391 16.3125C113.516 15.9844 113.633 15.6641 113.742 15.3516C113.867 15.0391 113.984 14.7344 114.094 14.4375C114.203 14.1406 114.312 13.8438 114.422 13.5469C114.547 13.25 114.672 12.9531 114.797 12.6562C114.828 12.5625 114.859 12.4688 114.891 12.375C114.922 12.2812 114.953 12.1875 114.984 12.0938C115.047 11.9219 115.141 11.75 115.266 11.5781C115.344 11.3594 115.422 11.1953 115.5 11.0859C115.625 10.8984 115.719 10.75 115.781 10.6406C115.781 10.4688 115.836 10.3516 115.945 10.2891C116.023 10.2422 116.109 10.1406 116.203 9.98438C116.375 9.71875 116.492 9.46875 116.555 9.23438C116.617 9 116.734 8.75 116.906 8.48438L117.469 7.78125C117.5 7.71875 117.531 7.65625 117.562 7.59375C117.594 7.53125 117.625 7.46875 117.656 7.40625C117.734 7.28125 117.828 7.17188 117.938 7.07812C118.297 6.51562 118.672 5.95312 119.062 5.39062L120.328 3.60938C120.609 3.17188 120.922 2.75781 121.266 2.36719C121.609 1.97656 121.969 1.59375 122.344 1.21875C122.469 1.0625 122.617 0.890625 122.789 0.703125C122.961 0.515625 123.141 0.40625 123.328 0.375C123.625 0.34375 123.938 0.375 124.266 0.46875C124.359 0.625 124.445 0.789062 124.523 0.960938C124.602 1.13281 124.672 1.32812 124.734 1.54688C124.797 2.51562 124.766 3.45312 124.641 4.35938C124.516 5.26562 124.375 6.15625 124.219 7.03125C124.188 7.23438 124.18 7.38281 124.195 7.47656C124.211 7.57031 124.203 7.71875 124.172 7.92188C124.109 8.10938 124.031 8.35156 123.938 8.64844C123.844 8.94531 123.766 9.21875 123.703 9.46875C123.703 9.89062 123.609 10.2812 123.422 10.6406C123.234 10.9844 123.109 11.3281 123.047 11.6719C122.953 11.7344 122.898 11.8359 122.883 11.9766C122.867 12.1172 122.812 12.2188 122.719 12.2812C122.641 12.6406 122.539 12.9531 122.414 13.2188C122.273 13.5 122.156 13.7812 122.062 14.0625C121.828 14.3906 121.594 14.7109 121.359 15.0234C121.125 15.3359 120.883 15.6484 120.633 15.9609C120.383 16.2578 120.141 16.5703 119.906 16.8984C119.688 17.2109 119.469 17.5312 119.25 17.8594C118.703 18.6875 118.133 19.4688 117.539 20.2031C116.945 20.9375 116.375 21.7188 115.828 22.5469C115.391 22.9375 115.047 23.3281 114.797 23.7188C114.531 24.1406 114.172 24.5312 113.719 24.8906C113.641 25.2031 113.562 25.5312 113.484 25.875C113.422 26.2188 113.352 26.5703 113.273 26.9297C113.211 27.2891 113.141 27.6562 113.062 28.0312C112.984 28.4062 112.906 28.7812 112.828 29.1562C112.812 29.3594 112.766 29.5703 112.688 29.7891C112.656 29.8984 112.625 30.0078 112.594 30.1172C112.562 30.2109 112.531 30.3125 112.5 30.4219C112.438 30.6406 112.422 30.9062 112.453 31.2188C112.469 31.5 112.422 31.7656 112.312 32.0156C112.359 32.1406 112.398 32.3203 112.43 32.5547C112.445 32.7578 112.5 32.9375 112.594 33.0938C112.766 33.375 112.953 33.5156 113.156 33.5156C113.391 33.3906 113.516 33.3359 113.531 33.3516C113.547 33.3672 113.594 33.3594 113.672 33.3281C113.828 33.2344 113.984 33.1094 114.141 32.9531C114.297 32.7969 114.438 32.6562 114.562 32.5312C114.734 32.4531 114.852 32.3828 114.914 32.3203C114.961 32.2734 115.047 32.2031 115.172 32.1094C115.266 32.0469 115.352 32 115.43 31.9688C115.508 31.9375 115.578 31.8906 115.641 31.8281C116.094 31.3594 116.516 31.0078 116.906 30.7734C117.312 30.5391 117.641 30.25 117.891 29.9062L118.734 29.3906C118.906 29.2969 119.07 29.1641 119.227 28.9922C119.367 28.8203 119.547 28.6875 119.766 28.5938C119.859 28.4688 119.922 28.3906 119.953 28.3594C119.984 28.3281 120.047 28.25 120.141 28.125C120.328 28 120.516 27.875 120.703 27.75C120.891 27.625 121.07 27.5 121.242 27.375C121.414 27.25 121.594 27.125 121.781 27C121.984 26.875 122.188 26.75 122.391 26.625C122.453 26.4688 122.555 26.3438 122.695 26.25C122.836 26.1562 122.953 26.0625 123.047 25.9688C123.141 25.875 123.219 25.7734 123.281 25.6641C123.359 25.5391 123.469 25.4688 123.609 25.4531C123.625 25.3125 123.695 25.2031 123.82 25.125C123.945 25.0469 124.047 24.9375 124.125 24.7969ZM121.594 7.3125H121.547C121.266 7.375 121.07 7.51562 120.961 7.73438C120.852 7.95312 120.75 8.20312 120.656 8.48438C120.594 8.60938 120.531 8.71875 120.469 8.8125C120.422 8.90625 120.383 8.98438 120.352 9.04688C120.289 9.15625 120.266 9.34375 120.281 9.60938C119.797 10.4062 119.336 11.2266 118.898 12.0703C118.461 12.8984 118.039 13.75 117.633 14.625C117.242 15.5 116.844 16.3828 116.438 17.2734C116.031 18.1484 115.625 19.0312 115.219 19.9219C115.859 19.2812 116.445 18.5312 116.977 17.6719C117.242 17.2344 117.516 16.8281 117.797 16.4531C118.094 16.0781 118.391 15.7344 118.688 15.4219C118.906 14.8906 119.133 14.375 119.367 13.875C119.617 13.375 119.875 12.8984 120.141 12.4453C120.656 11.5703 121.062 10.5312 121.359 9.32812C121.234 8.9375 121.25 8.60156 121.406 8.32031C121.562 8.03906 121.625 7.70312 121.594 7.3125ZM136.688 24.7969C137 24.875 137.227 24.9844 137.367 25.125C137.477 25.2344 137.531 25.3594 137.531 25.5C137.281 25.8438 137.133 26.0703 137.086 26.1797C137.039 26.2891 136.938 26.375 136.781 26.4375C136.578 26.75 136.359 27.0469 136.125 27.3281C135.906 27.5938 135.664 27.8516 135.398 28.1016C134.914 28.5703 134.438 29.1094 133.969 29.7188C133.766 29.9219 133.625 30.0781 133.547 30.1875C133.469 30.2969 133.328 30.4531 133.125 30.6562C132.75 30.9219 132.438 31.1953 132.188 31.4766C132.047 31.6328 131.898 31.7812 131.742 31.9219C131.602 32.0469 131.453 32.1719 131.297 32.2969C131.219 32.3594 131.141 32.4219 131.062 32.4844C131 32.5312 130.93 32.5859 130.852 32.6484C130.789 32.7109 130.719 32.7734 130.641 32.8359C130.562 32.8984 130.484 32.9688 130.406 33.0469C130.281 33.1719 130.141 33.2969 129.984 33.4219C129.922 33.4688 129.852 33.5234 129.773 33.5859C129.711 33.6328 129.641 33.6875 129.562 33.75C129.375 33.9688 129.188 34.1875 129 34.4062C128.812 34.625 128.625 34.8594 128.438 35.1094C128.109 35.2656 127.797 35.4531 127.5 35.6719C127.219 35.875 126.891 36.0625 126.516 36.2344C126.359 36.3281 126.211 36.4766 126.07 36.6797C125.945 36.8672 125.766 37 125.531 37.0781C125.281 37.1719 125.016 37.1953 124.734 37.1484C124.453 37.1016 124.219 37.0312 124.031 36.9375C123.828 36.7969 123.703 36.7188 123.656 36.7031C123.531 36.6719 123.453 36.6562 123.422 36.6562C123.125 36.2344 122.922 35.7891 122.812 35.3203C122.75 35.0703 122.68 34.8203 122.602 34.5703C122.539 34.3203 122.469 34.0625 122.391 33.7969C122.328 33.6406 122.281 33.4766 122.25 33.3047C122.219 33.1328 122.188 32.9375 122.156 32.7188L122.086 32.3438C122.07 32.2812 122.055 32.2188 122.039 32.1562C122.023 32.0781 122 32 121.969 31.9219C121.906 31.7656 121.844 31.6016 121.781 31.4297C121.719 31.2578 121.672 31.0781 121.641 30.8906C121.578 30.5156 121.555 30.1484 121.57 29.7891C121.586 29.4297 121.625 29.0781 121.688 28.7344C121.875 27.7031 122.148 26.7188 122.508 25.7812C122.867 24.8438 123.234 23.9531 123.609 23.1094C123.688 22.7188 123.773 22.4219 123.867 22.2188C123.961 22.0156 124.062 21.7344 124.172 21.375C124.312 21.2031 124.422 20.9531 124.5 20.625C124.531 20.4844 124.562 20.3438 124.594 20.2031C124.641 20.0625 124.688 19.9219 124.734 19.7812C124.781 19.6562 124.836 19.5312 124.898 19.4062C124.961 19.2656 125.023 19.1172 125.086 18.9609C125.211 18.6797 125.312 18.3906 125.391 18.0938C125.5 17.7344 125.586 17.4219 125.648 17.1562C125.68 17 125.719 16.8516 125.766 16.7109C125.828 16.5703 125.891 16.4375 125.953 16.3125C126.078 15.9844 126.195 15.6641 126.305 15.3516C126.43 15.0391 126.547 14.7344 126.656 14.4375C126.766 14.1406 126.875 13.8438 126.984 13.5469C127.109 13.25 127.234 12.9531 127.359 12.6562C127.391 12.5625 127.422 12.4688 127.453 12.375C127.484 12.2812 127.516 12.1875 127.547 12.0938C127.609 11.9219 127.703 11.75 127.828 11.5781C127.906 11.3594 127.984 11.1953 128.062 11.0859C128.188 10.8984 128.281 10.75 128.344 10.6406C128.344 10.4688 128.398 10.3516 128.508 10.2891C128.586 10.2422 128.672 10.1406 128.766 9.98438C128.938 9.71875 129.055 9.46875 129.117 9.23438C129.18 9 129.297 8.75 129.469 8.48438L130.031 7.78125C130.062 7.71875 130.094 7.65625 130.125 7.59375C130.156 7.53125 130.188 7.46875 130.219 7.40625C130.297 7.28125 130.391 7.17188 130.5 7.07812C130.859 6.51562 131.234 5.95312 131.625 5.39062L132.891 3.60938C133.172 3.17188 133.484 2.75781 133.828 2.36719C134.172 1.97656 134.531 1.59375 134.906 1.21875C135.031 1.0625 135.18 0.890625 135.352 0.703125C135.523 0.515625 135.703 0.40625 135.891 0.375C136.188 0.34375 136.5 0.375 136.828 0.46875C136.922 0.625 137.008 0.789062 137.086 0.960938C137.164 1.13281 137.234 1.32812 137.297 1.54688C137.359 2.51562 137.328 3.45312 137.203 4.35938C137.078 5.26562 136.938 6.15625 136.781 7.03125C136.75 7.23438 136.742 7.38281 136.758 7.47656C136.773 7.57031 136.766 7.71875 136.734 7.92188C136.672 8.10938 136.594 8.35156 136.5 8.64844C136.406 8.94531 136.328 9.21875 136.266 9.46875C136.266 9.89062 136.172 10.2812 135.984 10.6406C135.797 10.9844 135.672 11.3281 135.609 11.6719C135.516 11.7344 135.461 11.8359 135.445 11.9766C135.43 12.1172 135.375 12.2188 135.281 12.2812C135.203 12.6406 135.102 12.9531 134.977 13.2188C134.836 13.5 134.719 13.7812 134.625 14.0625C134.391 14.3906 134.156 14.7109 133.922 15.0234C133.688 15.3359 133.445 15.6484 133.195 15.9609C132.945 16.2578 132.703 16.5703 132.469 16.8984C132.25 17.2109 132.031 17.5312 131.812 17.8594C131.266 18.6875 130.695 19.4688 130.102 20.2031C129.508 20.9375 128.938 21.7188 128.391 22.5469C127.953 22.9375 127.609 23.3281 127.359 23.7188C127.094 24.1406 126.734 24.5312 126.281 24.8906C126.203 25.2031 126.125 25.5312 126.047 25.875C125.984 26.2188 125.914 26.5703 125.836 26.9297C125.773 27.2891 125.703 27.6562 125.625 28.0312C125.547 28.4062 125.469 28.7812 125.391 29.1562C125.375 29.3594 125.328 29.5703 125.25 29.7891C125.219 29.8984 125.188 30.0078 125.156 30.1172C125.125 30.2109 125.094 30.3125 125.062 30.4219C125 30.6406 124.984 30.9062 125.016 31.2188C125.031 31.5 124.984 31.7656 124.875 32.0156C124.922 32.1406 124.961 32.3203 124.992 32.5547C125.008 32.7578 125.062 32.9375 125.156 33.0938C125.328 33.375 125.516 33.5156 125.719 33.5156C125.953 33.3906 126.078 33.3359 126.094 33.3516C126.109 33.3672 126.156 33.3594 126.234 33.3281C126.391 33.2344 126.547 33.1094 126.703 32.9531C126.859 32.7969 127 32.6562 127.125 32.5312C127.297 32.4531 127.414 32.3828 127.477 32.3203C127.523 32.2734 127.609 32.2031 127.734 32.1094C127.828 32.0469 127.914 32 127.992 31.9688C128.07 31.9375 128.141 31.8906 128.203 31.8281C128.656 31.3594 129.078 31.0078 129.469 30.7734C129.875 30.5391 130.203 30.25 130.453 29.9062L131.297 29.3906C131.469 29.2969 131.633 29.1641 131.789 28.9922C131.93 28.8203 132.109 28.6875 132.328 28.5938C132.422 28.4688 132.484 28.3906 132.516 28.3594C132.547 28.3281 132.609 28.25 132.703 28.125C132.891 28 133.078 27.875 133.266 27.75C133.453 27.625 133.633 27.5 133.805 27.375C133.977 27.25 134.156 27.125 134.344 27C134.547 26.875 134.75 26.75 134.953 26.625C135.016 26.4688 135.117 26.3438 135.258 26.25C135.398 26.1562 135.516 26.0625 135.609 25.9688C135.703 25.875 135.781 25.7734 135.844 25.6641C135.922 25.5391 136.031 25.4688 136.172 25.4531C136.188 25.3125 136.258 25.2031 136.383 25.125C136.508 25.0469 136.609 24.9375 136.688 24.7969ZM134.156 7.3125H134.109C133.828 7.375 133.633 7.51562 133.523 7.73438C133.414 7.95312 133.312 8.20312 133.219 8.48438C133.156 8.60938 133.094 8.71875 133.031 8.8125C132.984 8.90625 132.945 8.98438 132.914 9.04688C132.852 9.15625 132.828 9.34375 132.844 9.60938C132.359 10.4062 131.898 11.2266 131.461 12.0703C131.023 12.8984 130.602 13.75 130.195 14.625C129.805 15.5 129.406 16.3828 129 17.2734C128.594 18.1484 128.188 19.0312 127.781 19.9219C128.422 19.2812 129.008 18.5312 129.539 17.6719C129.805 17.2344 130.078 16.8281 130.359 16.4531C130.656 16.0781 130.953 15.7344 131.25 15.4219C131.469 14.8906 131.695 14.375 131.93 13.875C132.18 13.375 132.438 12.8984 132.703 12.4453C133.219 11.5703 133.625 10.5312 133.922 9.32812C133.797 8.9375 133.812 8.60156 133.969 8.32031C134.125 8.03906 134.188 7.70312 134.156 7.3125Z" fill="#1F2933"/>
</svg>
